<?xml version="1.0" encoding="utf-8"?><!-- Uploaded to: SVG Repo, www.svgrepo.com, Generator: SVG Repo Mixer Tools -->
<svg fill="#000000" width="800px" height="800px" viewBox="0 0 24 24" id="sushi-3" data-name="Flat Color" xmlns="http://www.w3.org/2000/svg" class="icon flat-color"><path id="secondary" d="M9,14a.93.93,0,0,1-.45-.11,1,1,0,0,1-.44-1.34l5-10a1,1,0,0,1,1.78.9l-5,10A1,1,0,0,1,9,14Z" style="fill: rgb(44, 169, 188);"></path><rect id="primary" x="4" y="12" width="10" height="10" rx="2" style="fill: rgb(0, 0, 0);"></rect><path id="secondary-2" data-name="secondary" d="M9,18a1,1,0,0,1-.61-.21,1,1,0,0,1-.18-1.4l10-13a1,1,0,0,1,1.58,1.22l-10,13A1,1,0,0,1,9,18Z" style="fill: rgb(44, 169, 188);"></path></svg>